<svg width="230" height="231" viewBox="0 0 230 231" fill="none" xmlns="http://www.w3.org/2000/svg">
<path d="M186.427 199.614L168.668 217.531L162.247 193.135L200.311 51.0785C201.202 47.7537 204.651 45.7623 207.976 46.6532L220.066 49.8927C223.39 50.7836 225.382 54.2327 224.491 57.5575L186.427 199.614Z" fill="#B5313B"/>
<path d="M223.084 50.7052L214.017 48.2756C217.341 49.1665 219.333 52.6156 218.442 55.9405L180.378 197.997L172.496 215.322L171.687 218.344L189.445 200.427L227.509 58.3701C228.4 55.0451 226.408 51.596 223.084 50.7052Z" fill="#1F294D"/>
<path d="M172.448 82.4824L144.494 29.6394L50.7979 4.53345L3.82543 179.837L136.814 215.471L172.448 82.4824Z" fill="#B5313B"/>
<path d="M193.019 78.2798L217.199 84.7588L220.439 72.6687L196.259 66.1897L193.019 78.2798Z" fill="#B5313B"/>
<path d="M88.826 92.4585C85.6675 104.246 73.7874 111.105 61.9997 107.947C50.212 104.788 43.3531 92.908 46.5115 81.1203C49.67 69.3327 61.5502 62.4737 73.3378 65.6322C85.1255 68.7907 91.9845 80.6708 88.826 92.4585Z" fill="#B5313B"/>
<path d="M71.8103 155.943C68.6518 167.73 56.7717 174.589 44.9841 171.431C33.1964 168.272 26.3374 156.392 29.4959 144.605C32.6544 132.817 44.5345 125.958 56.3222 129.117C68.1098 132.275 74.9688 144.155 71.8103 155.943Z" fill="#B5313B"/>
<path d="M3.82543 179.837L12.8929 182.267L59.8653 6.96306L50.7979 4.53345L3.82543 179.837Z" fill="white"/>
<path d="M141.485 28.8512L138.462 28.0413L163.393 80.0745L127.759 213.063L136.827 215.493L172.461 82.5041L141.485 28.8512Z" fill="white"/>
<path d="M144.524 29.6506L133.186 71.9654L172.478 82.4937L144.524 29.6506Z" fill="#B5313B"/>
<path d="M139.037 219.316L0.00253717 182.062L48.5947 0.713135L146.523 26.9529L175.804 82.0954L139.036 219.316L139.037 219.316ZM7.66738 177.636L134.611 211.651L169.112 82.8934L142.486 32.3498L53.0201 8.37762L7.66738 177.636Z" fill="white"/>
<path d="M171.643 85.5012L132.351 74.973C130.538 74.487 129.653 72.9543 130.139 71.1408L141.477 28.826C141.801 27.6171 143.032 26.6509 144.019 26.5917C145.39 26.311 146.82 27.0184 147.182 28.0872L175.136 80.9302C175.8 82.08 175.476 83.2888 174.85 84.4171C174.223 85.5446 172.852 85.8253 171.643 85.5012ZM136.993 69.7377L166.311 77.5935L145.497 38.0017L136.993 69.7377Z" fill="white"/>
<path d="M146.827 117.731L101.49 105.583C99.676 105.097 98.7911 103.565 99.277 101.751C99.7629 99.9376 101.296 99.0527 103.109 99.5386L148.446 111.687C150.26 112.173 151.145 113.705 150.659 115.519C150.173 117.332 148.64 118.217 146.827 117.731Z" fill="white"/>
<path d="M144.008 104.033L104.716 93.5052C102.903 93.0193 102.018 91.4865 102.504 89.673C102.99 87.8595 104.522 86.9746 106.336 87.4605L145.628 97.9888C147.441 98.4747 148.326 100.007 147.84 101.821C147.355 103.634 145.822 104.519 144.008 104.033Z" fill="white"/>
<path d="M65.1985 95.8645C64.2918 95.6216 63.7681 95.1574 63.3259 94.3909L58.9006 86.7261C58.0156 85.1933 58.5015 83.3798 60.0344 82.4945C61.5673 81.6092 63.3807 82.0954 64.266 83.6283L66.9211 88.2271L76.3835 80.7203C77.6142 79.7544 79.8108 80.0188 80.7771 81.2496C81.7433 82.4803 81.4786 84.6769 80.2478 85.6431L67.941 95.3033C67.174 95.7458 66.4074 96.1884 65.1985 95.8645Z" fill="white"/>
<path d="M61.176 110.982C47.877 107.418 39.9117 93.6218 43.4751 80.3227C47.0386 67.0237 60.835 59.0584 74.134 62.6218C87.433 66.1853 95.3984 79.9817 91.835 93.2807C88.2715 106.58 74.4747 114.545 61.176 110.982ZM72.5143 68.6669C62.5401 65.9943 52.1928 71.9683 49.5202 81.9425C46.8476 91.9167 52.8216 102.264 62.7958 104.937C72.77 107.609 83.1173 101.635 85.7899 91.661C88.4625 81.6868 82.4884 71.3395 72.5143 68.6669Z" fill="white"/>
<path d="M129.803 181.208L84.4662 169.06C82.6527 168.574 81.7677 167.041 82.2536 165.228C82.7396 163.414 84.2724 162.529 86.0858 163.015L131.423 175.163C133.236 175.649 134.121 177.182 133.635 178.995C133.15 180.809 131.617 181.694 129.803 181.208Z" fill="white"/>
<path d="M127.008 167.494L87.7162 156.966C85.9027 156.48 85.0177 154.947 85.5036 153.134C85.9896 151.32 87.5224 150.435 89.3358 150.921L128.628 161.45C130.441 161.936 131.326 163.468 130.84 165.282C130.355 167.095 128.822 167.98 127.008 167.494Z" fill="white"/>
<path d="M48.1906 159.333C47.2839 159.09 46.7602 158.626 46.318 157.86L41.8927 150.195C41.0077 148.662 41.4937 146.849 43.0265 145.963C44.5593 145.078 46.3728 145.564 47.2581 147.097L49.9132 151.696L59.3756 144.189C60.6063 143.223 62.8029 143.488 63.7692 144.718C64.7355 145.949 64.4707 148.146 63.24 149.112L50.9331 158.772C50.1661 159.215 49.3995 159.657 48.1906 159.333Z" fill="white"/>
<path d="M44.1682 174.458C30.8692 170.895 22.9038 157.098 26.4673 143.799C30.0307 130.5 43.8272 122.535 57.1262 126.098C70.4252 129.662 78.3906 143.458 74.8271 156.757C71.2637 170.056 57.4669 178.022 44.1682 174.458ZM55.5064 132.143C45.5322 129.471 35.1849 135.445 32.5123 145.419C29.8398 155.393 35.8138 165.741 45.788 168.413C55.7621 171.086 66.1095 165.112 68.782 155.138C71.4546 145.163 65.4806 134.816 55.5064 132.143Z" fill="white"/>
<path d="M167.066 223.573L159.08 192.926L197.306 50.2649C198.602 45.4291 203.664 42.2503 208.803 43.6271L220.893 46.8666C225.728 48.1623 228.907 53.2253 227.53 58.3636L189.224 201.327L167.066 223.573ZM165.53 193.034L170.305 211.483L183.665 197.893L202.575 127.319L221.486 56.7439C221.891 55.2326 221.087 53.3977 219.273 52.9117L207.183 49.6723C205.672 49.2673 203.837 50.0713 203.351 51.8848L165.53 193.034Z" fill="white"/>
<path d="M219.429 88.5873L189.204 80.4886L194.063 62.3538L224.288 70.4524L219.429 88.5873ZM196.869 76.0633L215.004 80.9225L216.624 74.8778L198.489 70.0186L196.869 76.0633Z" fill="white"/>
<path d="M187.251 196.591L163.071 190.112L161.452 196.157L185.631 202.636L187.251 196.591Z" fill="white"/>
<path d="M166.237 226.613C164.424 226.127 163.539 224.594 164.024 222.781L165.644 216.735C166.13 214.922 167.663 214.037 169.476 214.523C171.29 215.009 172.175 216.542 171.689 218.355L170.069 224.4C169.583 226.213 168.051 227.099 166.237 226.613Z" fill="white"/>
</svg>
